<svg xmlns="http://www.w3.org/2000/svg" width="48" height="48" viewBox="0 0 48 48">
  <defs>
    <style>
      .insta {
        fill: #fff;
        <!-- fill-rule: evenodd; -->
      }
    </style>
  </defs>
  <path class="insta" d="M1098,2733h-18a15.005,15.005,0,0,0-15,15v18a15.005,15.005,0,0,0,15,15h18a15.005,15.005,0,0,0,15-15v-18A15.005,15.005,0,0,0,1098,2733Zm10.5,33a10.512,10.512,0,0,1-10.5,10.5h-18a10.512,10.512,0,0,1-10.5-10.5v-18a10.512,10.512,0,0,1,10.5-10.5h18a10.512,10.512,0,0,1,10.5,10.5v18Zm-19.5-21a12,12,0,1,0,12,12A12,12,0,0,0,1089,2745Zm0,19.5a7.5,7.5,0,1,1,7.5-7.5A7.516,7.516,0,0,1,1089,2764.5Zm12.9-22a1.6,1.6,0,1,1-1.6,1.6A1.6,1.6,0,0,1,1101.9,2742.5Z" transform="translate(-1065 -2733)"/>
</svg>
