<svg xmlns="http://www.w3.org/2000/svg" viewBox="0 0 282.2 134.11"><defs><style>.cls-1{fill:#fff;}</style></defs><title>4_paws_logo</title><path class="cls-1" d="M267,36.42A526.77,526.77,0,0,0,185.35,23C177.94,9.83,161.55.93,143.16,0.07V0h-2.91L139,0v0C120.65,0.93,104.26,9.83,96.85,23A526.74,526.74,0,0,0,15.19,36.42C6.82,38.49,0,47.19,0,55.81v65c0,7.7,5.43,13.29,12.91,13.29a16.29,16.29,0,0,0,3.88-.49A519.48,519.48,0,0,1,141.1,118.26a519.51,519.51,0,0,1,124.31,15.36,16.26,16.26,0,0,0,3.88.49c7.48,0,12.9-5.59,12.91-13.29v-65C282.2,47.19,275.39,38.49,267,36.42Zm12,84.4c0,5.94-4,10.09-9.71,10.09a12.91,12.91,0,0,1-3.11-.39A522.8,522.8,0,0,0,141.1,115.06,522.71,522.71,0,0,0,16,130.51a13,13,0,0,1-3.11.39c-5.71,0-9.71-4.15-9.71-10.09v-65C3.2,48.57,8.92,41.26,16,39.53a523.69,523.69,0,0,1,81.81-13.4L98.84,26l0.51-1C106.23,12.31,122.3,3.73,140.3,3.22l0.54,0h0.63l0.42,0c18,0.5,34.08,9.09,40.94,21.86l0.52,1,1.08,0.09a523.78,523.78,0,0,1,81.81,13.4c7,1.73,12.76,9,12.76,16.28v65Z"/><path class="cls-1" d="M15.08,50.07a480.7,480.7,0,0,1,94.3-15.51c-0.41.64-.8,1.29-1.16,2A478.66,478.66,0,0,0,15.08,52V50.07m252.21,0a481.25,481.25,0,0,0-99-15.77c0.41,0.64.8,1.28,1.17,1.94A479.2,479.2,0,0,1,267.29,52V50.07ZM106.54,105.63a2.93,2.93,0,0,0,3-3.17c0-2.21-1.3-2.89-3.13-2.77l-2.57.17v10l1.18-.08v-4.09Zm-0.09-4.79a1.6,1.6,0,0,1,1.82,1.68,1.8,1.8,0,0,1-1.86,2l-1.42.1v-3.64ZM119.1,109l1.52-.07-2.8-4.26a2.78,2.78,0,0,0,2.1-2.75c0-2.34-1.51-2.92-3.24-2.84l-2.26.1v10l1.19-.06V105l0.91,0Zm-2.27-8.77a1.58,1.58,0,0,1,1.84,1.77,1.8,1.8,0,0,1-2,1.86l-1,0v-3.62Zm8.57,8.54,5.46-.14V107.5l-4.27.11v-3.45l3.68-.09v-1.17l-3.68.09v-3.1l4.25-.11V98.62l-5.43.14v10Zm18-.24h1.19v-10h-1.4l-2.94,4-3-4h-1.42v10h1.19v-8.34h0.05l3.11,4.07h0l3.11-4.08h0v8.34Zm6.9,0.08,1.19,0v-10l-1.19,0v10Zm6.83-4c0,2.85,1.75,4.34,3.78,4.42s3.75-1.28,3.75-4.13V99l-1.19,0v5.79c0,1.89-.91,3.22-2.56,3.16s-2.58-1.46-2.58-3.35V98.8l-1.19,0v5.93m20.63,5.15,1.19,0.08v-10l-1.39-.09-2.94,3.78-2.95-4.17-1.42-.09v10l1.19,0.08v-8.34h0.05l3.1,4.27h0l3.1-3.87h0v8.35Zm-162.7,9.38v1.94a476.71,476.71,0,0,1,79.19-14.35v-1.89a479,479,0,0,0-79.19,14.29m252.21,0a478.5,478.5,0,0,0-79.19-14.28v1.88a476.35,476.35,0,0,1,79.19,14.35v-1.94ZM149.58,90.83c3.73,0,3.84-1.89,3.84-3.86V73.8c0-.88.22-1.1,1.1-1.1h1c2,0,3.84-.13,3.84-3.86V64.66c0-2-.11-3.84-3.84-3.82h-1c-0.88,0-1.1-.21-1.1-1.09V17.85c0-2-.11-3.84-3.84-3.82l-7.24,0c-2.08,0-3.18.35-4.28,2.44L115.24,58.77A6.71,6.71,0,0,0,114,62.18v6.91c0,3.73,1.87,3.83,3.84,3.82l19.53-.11c0.88,0,1.1,0,1.1,1.09V87c0,2,.11,3.84,3.84,3.82ZM130,61c-0.44,0-1,0-1-.76,0-1.1,1.31-2.42,5.38-10.79,2.41-5.06,3-6.93,3.62-6.93s0.44,0.44.44,0.87V59.73c0,0.77.11,1.2-1.21,1.22ZM31.92,94.26a0.83,0.83,0,0,0-.08-0.42l-2-4.52a0.39,0.39,0,0,0-.37-0.3c-0.37.09-2.34,2.76-4.93,3.41-2.26.57-4.23-1.14-4.23-9,0-6,1.77-8.17,3.66-8.65S27.68,75.47,29,75.8a0.81,0.81,0,0,0,.33,0,0.7,0.7,0,0,0,.45-0.47l2-5.57a2,2,0,0,0,.08-0.42,0.73,0.73,0,0,0-.49-0.67c-1.89-1.25-5-1.52-7.6-.86a14.3,14.3,0,0,0-8.1,5.66C13.1,77,12.24,81,12.24,86.3c0,10,3.78,15.25,11.75,13.24,2.55-.64,7.93-3.5,7.93-5.27m20.73-8.35a1.48,1.48,0,0,0,0-.41c0-.53-0.25-0.57-0.83-0.45L42.68,87V65.14c0-.75-0.17-0.85-0.87-0.7l-6.31,1.3c-0.79.16-.87,0.31-0.87,1.06V95.27c0,0.84.08,0.91,0.87,0.75L51,92.83a0.83,0.83,0,0,0,.87-0.93ZM66.19,91c7.12-1.1,11.89-5.29,11.89-13.19V59c0-.75-0.08-0.87-0.88-0.74l-6.16,1c-0.71.11-.84,0.26-0.84,1V78.71c0,3.62-1.13,5.08-3.56,5.45s-3.22-.43-3.22-4.44V61.31c0-.75,0-0.88-0.84-0.75l-6.41,1c-0.8.12-.88,0.27-0.88,1V81.73c0,6.93,2.68,10.58,10.89,9.3M97.54,85.9c3.54-1.24,5.95-5.23,5.95-9.12A6.36,6.36,0,0,0,99,70.26a7.07,7.07,0,0,0,3.46-6.44,7.75,7.75,0,0,0-2.53-5.92c-1.81-1.5-3.67-1.66-8.27-1.2l-8.31.84c-0.8.08-.89,0.22-0.89,1V87c0,0.84.09,0.92,0.89,0.84l8.69-.88a19.7,19.7,0,0,0,5.48-1M92,62.76c2.4-.24,3,0.58,3,2.53s-0.76,3.08-2.82,3.29l-1.73.17V62.91L92,62.76M91.81,74.43c3.46-.35,4,0.61,4,2.73,0,1.86-.76,3.08-3.67,3.37l-1.73.17V74.57l1.39-.14m89.31,0.33c6.33,0.52,10.52-3.24,10.52-9.38A10,10,0,0,0,189,58.49c-1.78-1.74-4.1-2.41-8.2-2.75l-8.28-.68c-0.8-.07-0.89,0-0.89.81V84.35c0,0.84.08,0.93,0.89,1l6.42,0.53c0.72,0.06.89,0,.89-0.85V74.65l1.31,0.11M181,61.94c2.11,0.17,3.25,1,3.25,3.27s-0.84,3.29-3.46,3.07l-1-.08V61.85l1.18,0.1m34.06,27.39a3.61,3.61,0,0,0-.08-0.54l-8.83-29.58c-0.25-.74-0.29-0.79-1-0.87l-6.26-.79c-0.71-.09-0.76,0-0.93.64l-8.79,27.37a1.77,1.77,0,0,0-.17.6c0,0.26.21,0.47,0.88,0.55l6.56,0.82c0.67,0.08.67,0,.88-0.64l1.72-6.1,5.51,0.69,1.6,6.51c0.17,0.73.21,0.78,0.93,0.87l7.1,0.89c0.63,0.08.84,0,.84-0.42m-11.65-14L200,75l1.09-5c0.25-1.25.55-3.55,0.71-4.94,0.17,1.35.55,3.87,0.76,5.13Zm43.91-8.25a3.79,3.79,0,0,0,.08-0.56,0.71,0.71,0,0,0-.71-0.66l-6-1.81a2.52,2.52,0,0,0-.5-0.14c-0.29-.05-0.46,0-0.54.65l-1.92,12.32c-0.17,1.07-.37,3.51-0.71,6.4-0.25-3-.29-5.35-0.58-6.69L233.87,64c-0.17-.78-0.21-0.88-0.91-1L227.87,62c-0.71-.13-0.79-0.06-0.92.58l-2.58,11.84c-0.29,1.31-.29,3.21-0.58,6.21-0.21-3-.46-5.16-0.67-6.48l-2-13c-0.13-.64-0.21-0.79-0.46-0.83a2.77,2.77,0,0,0-.54-0.06L214,59.76c-0.58-.06-0.75.08-0.75,0.39a3.85,3.85,0,0,0,.08.59l5.92,29.66c0.17,0.74.17,0.78,0.87,0.91L226,92.4c0.67,0.12.75,0.1,0.92-.58l2.75-12.16c0.29-1.18.5-4.36,0.71-6.49,0.17,2.24.42,5.46,0.63,6.65L233.41,93a0.87,0.87,0,0,0,1,.93L240.25,95c0.62,0.12.75,0.05,0.92-.58Zm11,32.11c6.09,1.5,10.2-1.32,10.2-7.19s-4-8.9-8.8-12.41c-2.26-1.66-3.09-2.4-3.09-3.59s0.66-1.65,2.59-1.17,4.69,2.39,6.29,3.58a1.6,1.6,0,0,0,.33.17,0.29,0.29,0,0,0,.33-0.23l1.77-4.73a0.36,0.36,0,0,0,0-.21c0-1.5-5.23-4.56-9-5.48-6.09-1.5-10.16.89-10.16,6.54,0,5,2.88,7.46,7,10.56s5,3.7,5,5.6c0,1.32-.82,2-2.55,1.58a21.36,21.36,0,0,1-7.41-4.3,0.86,0.86,0,0,0-.37-0.23,0.33,0.33,0,0,0-.41.3l-1.48,5.28a0.58,0.58,0,0,0,0,.26c0,1.72,6.83,5,9.71,5.66"/></svg>