<svg xmlns="http://www.w3.org/2000/svg" xmlns:xlink="http://www.w3.org/1999/xlink" viewBox="0 0 595.28 595.28"><defs><style>.cls-1{fill:url(#Новый_образец_градиентной_зал_2);}.cls-2,.cls-3{fill:none;stroke:#fff;stroke-linecap:round;stroke-linejoin:round;}.cls-2{stroke-width:6.52px;}.cls-3{stroke-width:6.48px;}.cls-4{fill:#fff;}</style><linearGradient id="Новый_образец_градиентной_зал_2" y1="297.64" x2="595.28" y2="297.64" gradientUnits="userSpaceOnUse"><stop offset="0" stop-color="#0909ff"/><stop offset="0.01" stop-color="#0c0afb"/><stop offset="0.15" stop-color="#2417d5"/><stop offset="0.3" stop-color="#3721b6"/><stop offset="0.45" stop-color="#47299e"/><stop offset="0.61" stop-color="#512f8c"/><stop offset="0.79" stop-color="#583282"/><stop offset="1" stop-color="#5a337f"/></linearGradient></defs><title>Монтажная область 1</title><g id="BG"><rect class="cls-1" width="595.28" height="595.28" rx="97.4" ry="97.4" transform="translate(0 595.28) rotate(-90)"/></g><g id="Icon"><path class="cls-2" d="M462.48,204.6l2-28A15.4,15.4,0,0,0,449.21,160H148a15.39,15.39,0,0,0-15.25,16.58l2,28"/><path class="cls-3" d="M431.41,142.1,433,115.34c.51-8.83-5.17-16.34-12.36-16.34h-244c-7.19,0-12.87,7.51-12.36,16.34l1.56,26.76"/><path class="cls-4" d="M469.6,228a14.93,14.93,0,0,1,14.9,16l-16.86,235.7a15,15,0,0,1-14.9,13.87H144.43a15,15,0,0,1-14.91-13.87L112.66,244a14.95,14.95,0,0,1,14.91-16H227.64a.21.21,0,0,1,.17.08l12.52,14.86A14.16,14.16,0,0,0,251.2,248h93a14.14,14.14,0,0,0,11.07-5.3L367,228.08a.23.23,0,0,1,.17-.08H469.6m0-7H367.2a7.22,7.22,0,0,0-5.62,2.69l-11.79,14.62a7.21,7.21,0,0,1-5.62,2.69h-93a7.21,7.21,0,0,1-5.52-2.57l-12.52-14.86a7.21,7.21,0,0,0-5.52-2.57H127.57a21.94,21.94,0,0,0-21.89,23.51l16.86,235.7a21.94,21.94,0,0,0,21.89,20.37H452.74a21.93,21.93,0,0,0,21.88-20.37l16.87-235.7A22,22,0,0,0,469.6,221Z"/></g></svg>