<svg xmlns="http://www.w3.org/2000/svg" xmlns:xlink="http://www.w3.org/1999/xlink" viewBox="0 0 595.28 595.28"><defs><style>.cls-1{fill:url(#Новый_образец_градиентной_зал_2);}.cls-2,.cls-3{fill:none;stroke:#fff;stroke-miterlimit:10;}.cls-2{stroke-width:7.19px;}.cls-3{stroke-width:7.04px;}</style><linearGradient id="Новый_образец_градиентной_зал_2" y1="297.64" x2="595.28" y2="297.64" gradientUnits="userSpaceOnUse"><stop offset="0" stop-color="#0909ff"/><stop offset="0.01" stop-color="#0c0afb"/><stop offset="0.15" stop-color="#2417d5"/><stop offset="0.3" stop-color="#3721b6"/><stop offset="0.45" stop-color="#47299e"/><stop offset="0.61" stop-color="#512f8c"/><stop offset="0.79" stop-color="#583282"/><stop offset="1" stop-color="#5a337f"/></linearGradient></defs><title>Монтажная область 1</title><g id="BG"><rect class="cls-1" width="595.28" height="595.28" rx="97.4" ry="97.4" transform="translate(595.28) rotate(90)"/></g><g id="Icon"><path class="cls-2" d="M252.68,130.9l37.11-29.58a15.93,15.93,0,0,1,19.94.06l36.8,29.84a19.38,19.38,0,0,0,13.1,4.3L407,133.33a15.85,15.85,0,0,1,16.07,11.75l12.17,45.76A19.28,19.28,0,0,0,443.34,202l39.6,26A15.82,15.82,0,0,1,489,247L471.9,291.18a19.28,19.28,0,0,0-.07,13.77l16.67,44.31a15.86,15.86,0,0,1-6.25,18.91l-39.87,25.75A19.43,19.43,0,0,0,434.22,405L421.6,450.7a15.92,15.92,0,0,1-16.19,11.64L358,459.82A19.33,19.33,0,0,0,344.89,464l-37.11,29.58a15.91,15.91,0,0,1-19.94-.07L251,463.7a19.34,19.34,0,0,0-13.09-4.3l-47.41,2.19a15.84,15.84,0,0,1-16.07-11.75l-12.18-45.76a19.29,19.29,0,0,0-8.05-11.16l-39.6-26a15.82,15.82,0,0,1-6.07-18.95l17.11-44.2a19.25,19.25,0,0,0,.07-13.76l-16.68-44.32a15.86,15.86,0,0,1,6.26-18.9L155.18,201a19.31,19.31,0,0,0,8.16-11.11L176,144.22a15.92,15.92,0,0,1,16.19-11.64l47.39,2.52A19.37,19.37,0,0,0,252.68,130.9Z"/><rect class="cls-3" x="208.85" y="264" width="38.92" height="103.85" rx="9" ry="9"/><path class="cls-3" d="M293.41,192.17c33-6,29.46,38.55,27.06,55.09a5.32,5.32,0,0,0,5.2,6.09l42.15.45a13.05,13.05,0,0,1,12.77,14.92l-12.81,88.11A13.06,13.06,0,0,1,355,368l-93.56,1.19a13,13,0,0,1-13.21-13V267.76s46.18-3.5,38.24-66.19A8.47,8.47,0,0,1,293.41,192.17Z"/></g></svg>