<svg id="Слой_2" data-name="Слой 2" xmlns="http://www.w3.org/2000/svg" viewBox="0 0 510 393"><defs><style>.cls-1{fill:none;stroke:#fff;stroke-linecap:round;stroke-linejoin:round;stroke-width:7px;}</style></defs><title>С 5-летним опытом</title><rect class="cls-1" x="3.5" y="64.5" width="503" height="325" rx="24" ry="24"/><path class="cls-1" d="M169.5,3.5h171a20,20,0,0,1,20,20v41a0,0,0,0,1,0,0h-211a0,0,0,0,1,0,0v-41A20,20,0,0,1,169.5,3.5Z"/><path class="cls-1" d="M345,261.28v20a22,22,0,0,1-22,22H278a22,22,0,0,1-22-22v-20" transform="translate(-45.5 -49.78)"/><path class="cls-1" d="M49,181.28s104,80,251.5,80,251.5-80,251.5-80" transform="translate(-45.5 -49.78)"/><line class="cls-1" x1="210.5" y1="220.5" x2="210.5" y2="211.5"/><line class="cls-1" x1="299.5" y1="220.5" x2="299.5" y2="211.5"/></svg>