<svg xmlns="http://www.w3.org/2000/svg" xmlns:xlink="http://www.w3.org/1999/xlink" viewBox="0 0 595.28 595.28"><defs><style>.cls-1{fill:url(#Новый_образец_градиентной_зал_2);}.cls-2,.cls-3{fill:none;stroke:#fff;stroke-linecap:round;stroke-width:7px;}.cls-2{stroke-miterlimit:10;}.cls-3{stroke-linejoin:round;}</style><linearGradient id="Новый_образец_градиентной_зал_2" y1="297.64" x2="595.28" y2="297.64" gradientUnits="userSpaceOnUse"><stop offset="0" stop-color="#0909ff"/><stop offset="0.01" stop-color="#0c0afb"/><stop offset="0.15" stop-color="#2417d5"/><stop offset="0.3" stop-color="#3721b6"/><stop offset="0.45" stop-color="#47299e"/><stop offset="0.61" stop-color="#512f8c"/><stop offset="0.79" stop-color="#583282"/><stop offset="1" stop-color="#5a337f"/></linearGradient></defs><title>Монтажная область 1</title><g id="BG"><rect class="cls-1" width="595.28" height="595.28" rx="97.4" ry="97.4" transform="translate(0 595.28) rotate(-90)"/></g><g id="Icon"><path class="cls-2" d="M199,178.57v-21a5.93,5.93,0,0,0-2.89-5.09l-56.84-33.73a5.88,5.88,0,0,0-7.27,1l-18.86,19.61a5.9,5.9,0,0,0-.81,7.13l33.21,55.6a5.92,5.92,0,0,0,4.86,2.88l46.31,1.65a5.94,5.94,0,0,1,3.92,1.69l75.16,73.65a5.94,5.94,0,0,0,2.19,1.36l74.16,25.89a5.78,5.78,0,0,1,2.23,1.4L488.44,444.64a6,6,0,0,1,1.73,4.18V477.9a6,6,0,0,1-1.73,4.18l-13,13a5.9,5.9,0,0,1-4.18,1.73H440.47a5.9,5.9,0,0,1-4.18-1.73L301.09,359.9a5.78,5.78,0,0,1-1.44-2.35l-13.39-41.07"/><path class="cls-2" d="M252.81,300.72,109.06,446.65a4.53,4.53,0,0,0-1.31,3.19V476a4.52,4.52,0,0,0,1.34,3.21l16.1,16.1a4.52,4.52,0,0,0,3.21,1.34h24.65a4.53,4.53,0,0,0,3.2-1.33L277.67,374.43"/><path class="cls-3" d="M296.73,255.34l26.75-26.75c-23-49.87,8.43-139.24,106.77-116.15a4.35,4.35,0,0,1,2.07,7.31l-44.81,44.81a33.14,33.14,0,0,0,0,46.88h0"/><path class="cls-3" d="M387.42,211.36h0a33.16,33.16,0,0,0,46.88,0l44.82-44.81a4.35,4.35,0,0,1,7.31,2.06C509.52,267,420.14,298.42,370.28,275.38"/></g></svg>