<svg id="Слой_2" data-name="Слой 2" xmlns="http://www.w3.org/2000/svg" viewBox="0 0 541.85 536.97"><defs><style>.cls-1{fill:none;stroke:#fff;stroke-linecap:round;stroke-linejoin:round;stroke-width:7px;}</style></defs><title>В течении 2-3 дней</title><path class="cls-1" d="M150.93,270.45l169.4,169.4a16.86,16.86,0,0,0,23.85,0L555.59,228.44a16.85,16.85,0,0,0,4.53-8.23C565.71,195.35,584,91.27,554.4,46.68c-27.18-41-166-11.38-193.49-6a16.9,16.9,0,0,0-8.68,4.63L150.93,246.6A16.86,16.86,0,0,0,150.93,270.45Z" transform="translate(-32.49 -21.82)"/><circle class="cls-1" cx="338.51" cy="198.46" r="52"/><rect class="cls-1" x="187.54" y="290.15" width="59" height="176" transform="translate(-236.32 242.41) rotate(-45)"/><path class="cls-1" d="M157.72,360.55S79.5,387.28,93,498.28c0,0,89.7,28.8,140.47-62" transform="translate(-32.49 -21.82)"/><polygon class="cls-1" points="3.5 211.23 97.5 118.45 224.5 118.45 111.49 231.46 3.5 211.23"/><polygon class="cls-1" points="325.73 533.47 418.51 439.47 418.51 312.47 305.49 425.49 325.73 533.47"/></svg>