<svg xmlns="http://www.w3.org/2000/svg" xmlns:xlink="http://www.w3.org/1999/xlink" viewBox="0 0 595.28 595.28"><defs><style>.cls-1{fill:url(#Новый_образец_градиентной_зал_2);}.cls-2{fill:none;stroke:#fff;stroke-linecap:round;stroke-miterlimit:10;stroke-width:7px;}.cls-3{fill:#fff;}</style><linearGradient id="Новый_образец_градиентной_зал_2" y1="297.64" x2="595.28" y2="297.64" gradientUnits="userSpaceOnUse"><stop offset="0" stop-color="#0909ff"/><stop offset="0.01" stop-color="#0c0afb"/><stop offset="0.15" stop-color="#2417d5"/><stop offset="0.3" stop-color="#3721b6"/><stop offset="0.45" stop-color="#47299e"/><stop offset="0.61" stop-color="#512f8c"/><stop offset="0.79" stop-color="#583282"/><stop offset="1" stop-color="#5a337f"/></linearGradient></defs><title>Монтажная область 1</title><g id="BG"><rect class="cls-1" width="595.28" height="595.28" rx="97.4" ry="97.4" transform="translate(595.28) rotate(90)"/></g><g id="Icon"><line class="cls-2" x1="183" y1="419.41" x2="247.62" y2="419.41"/><line class="cls-2" x1="243.28" y1="386.01" x2="212.79" y2="417.92"/><path class="cls-3" d="M468.49,102a17.7,17.7,0,0,1,17.68,17.68V361.55a17.7,17.7,0,0,1-17.68,17.68H456.68V447.1a16,16,0,0,1-15.95,15.95H336.59v16.14a14.4,14.4,0,0,1-14.39,14.39H266.39A14.41,14.41,0,0,1,252,479.19v-100H128.68A17.7,17.7,0,0,1,111,361.55V119.68A17.7,17.7,0,0,1,128.68,102H468.49m0-7H128.68A24.68,24.68,0,0,0,104,119.68V361.55a24.68,24.68,0,0,0,24.68,24.68H245v93a21.39,21.39,0,0,0,21.39,21.39H322.2a21.38,21.38,0,0,0,21.39-21.39v-9.14h97.14a23,23,0,0,0,22.95-22.95V386.23h4.81a24.68,24.68,0,0,0,24.68-24.68V119.68A24.68,24.68,0,0,0,468.49,95Z"/><path class="cls-3" d="M440.73,264.43a16,16,0,0,1,15.95,15.95V447.1a16,16,0,0,1-15.95,15.95H336.59v16.14a14.4,14.4,0,0,1-14.39,14.39H266.39A14.41,14.41,0,0,1,252,479.19V347.88a14.41,14.41,0,0,1,14.39-14.39H287.1V280.38a16,16,0,0,1,15.95-15.95H440.73m0-7H303.05a23,23,0,0,0-22.95,22.95v46.11H266.39A21.39,21.39,0,0,0,245,347.88V479.19a21.39,21.39,0,0,0,21.39,21.39H322.2a21.38,21.38,0,0,0,21.39-21.39v-9.14h97.14a23,23,0,0,0,22.95-22.95V280.38a23,23,0,0,0-22.95-22.95Z"/><path class="cls-3" d="M322.2,333.49a14.41,14.41,0,0,1,14.39,14.39V479.19a14.4,14.4,0,0,1-14.39,14.39H266.39A14.41,14.41,0,0,1,252,479.19V347.88a14.41,14.41,0,0,1,14.39-14.39H322.2m0-7H266.39A21.39,21.39,0,0,0,245,347.88V479.19a21.39,21.39,0,0,0,21.39,21.39H322.2a21.38,21.38,0,0,0,21.39-21.39V347.88a21.39,21.39,0,0,0-21.39-21.39Z"/></g></svg>