<svg xmlns="http://www.w3.org/2000/svg" xmlns:xlink="http://www.w3.org/1999/xlink" viewBox="0 0 595.28 595.28"><defs><style>.cls-1{fill:url(#Новый_образец_градиентной_зал_2);}.cls-2{fill:#fff;}</style><linearGradient id="Новый_образец_градиентной_зал_2" y1="297.64" x2="595.28" y2="297.64" gradientUnits="userSpaceOnUse"><stop offset="0" stop-color="#0909ff"/><stop offset="0.01" stop-color="#0c0afb"/><stop offset="0.15" stop-color="#2417d5"/><stop offset="0.3" stop-color="#3721b6"/><stop offset="0.45" stop-color="#47299e"/><stop offset="0.61" stop-color="#512f8c"/><stop offset="0.79" stop-color="#583282"/><stop offset="1" stop-color="#5a337f"/></linearGradient></defs><title>Монтажная область 1</title><g id="BG"><rect class="cls-1" width="595.28" height="595.28" rx="97.4" ry="97.4" transform="translate(595.28) rotate(90)"/></g><g id="Icon"><path class="cls-2" d="M294.45,163.79c22.38,0,45.31,5.62,68.13,16.73C381.75,189.85,401.1,203.13,420,220c33.7,30.08,56.91,63.32,65.33,76.2a4.74,4.74,0,0,1,0,5.3c-8.42,12.9-31.63,46.15-65.33,76.2-18.87,16.84-38.17,30.11-57.38,39.45-22.83,11.1-45.76,16.73-68.14,16.73C231,433.85,169.64,389.31,112,301.47a4.75,4.75,0,0,1,0-5.33C169.64,208.33,231,163.79,294.45,163.79m0-5.8c-57.17,0-122.09,34-188.68,135.43a9.67,9.67,0,0,0,0,10.83c66.59,101.42,131.51,135.43,188.68,135.43,102.67,0,180.23-109.66,197.07-135.46a9.63,9.63,0,0,0,0-10.76C474.69,267.64,397.1,158,294.45,158Z"/><path class="cls-2" d="M295.64,212.63c47.81,0,86.56,38.41,86.56,85.79s-38.75,85.79-86.56,85.79-86.56-38.41-86.56-85.79,38.77-85.74,86.56-85.79m0-6.57c-51.47,0-93.19,41.35-93.19,92.36s41.72,92.36,93.19,92.36,93.19-41.35,93.19-92.36h0c0-51-41.72-92.36-93.19-92.36Z"/><path class="cls-2" d="M295.64,273.49a24.93,24.93,0,1,1-25.15,24.93h0a25.1,25.1,0,0,1,25.15-24.93m0-6.57a31.5,31.5,0,1,0,31.78,31.5,31.64,31.64,0,0,0-31.78-31.5Z"/></g></svg>