<?xml version="1.0" encoding="utf-8"?>
<!-- Generator: Adobe Illustrator 22.0.0, SVG Export Plug-In . SVG Version: 6.00 Build 0)  -->
<svg version="1.1" xmlns="http://www.w3.org/2000/svg" xmlns:xlink="http://www.w3.org/1999/xlink" x="0px" y="0px"
	 viewBox="0 0 595.3 595.3" style="enable-background:new 0 0 595.3 595.3;" xml:space="preserve">
<style type="text/css">
	.st0{display:none;}
	.st1{display:inline;fill:url(#SVGID_1_);}
	.st2{fill:none;stroke:#FFFFFF;stroke-width:7;stroke-linecap:round;stroke-miterlimit:10;}
	.st3{fill:none;stroke:#FFFFFF;stroke-width:6.2133;stroke-linecap:round;stroke-miterlimit:10;}
</style>
<g id="BG" class="st0">
	
		<linearGradient id="SVGID_1_" gradientUnits="userSpaceOnUse" x1="0" y1="298.6378" x2="595.2756" y2="298.6378" gradientTransform="matrix(0 -1 1 0 0 595.2756)">
		<stop  offset="0" style="stop-color:#0909FF"/>
		<stop  offset="1.406783e-02" style="stop-color:#0C0AFB"/>
		<stop  offset="0.1549" style="stop-color:#2417D5"/>
		<stop  offset="0.3018" style="stop-color:#3721B6"/>
		<stop  offset="0.4543" style="stop-color:#47299E"/>
		<stop  offset="0.6148" style="stop-color:#512F8C"/>
		<stop  offset="0.7886" style="stop-color:#583282"/>
		<stop  offset="1" style="stop-color:#5A337F"/>
	</linearGradient>
	<path class="st1" d="M596.3,97.4v400.5c0,53.8-43.6,97.4-97.4,97.4H98.4C44.6,595.3,1,551.7,1,497.9V97.4C1,43.6,44.6,0,98.4,0
		h400.5C552.7,0,596.3,43.6,596.3,97.4z"/>
</g>
<g id="Слой_1" class="st0">
	
		<image style="display:inline;overflow:visible;enable-background:new    ;" width="600" height="600" id="Слой_1_3_" xlink:href="52B2C873.png"  transform="matrix(0.676 0 0 0.676 104 95)">
	</image>
</g>
<g id="Icon">
	<path class="st2" d="M479.2,314.8c0,99.2-80.4,179.6-179.6,179.6h-2h0C198.4,494.4,118,414,118,314.8V131.2l179.6-30l181.6,30
		V314.8z"/>
	<path class="st3" d="M298.6,297.8"/>
	<polyline class="st2" points="223.4,279.5 289.6,339 385.9,231.2 	"/>
</g>
<g id="Напрямні">
	
		<image style="display:none;overflow:visible;enable-background:new    ;" width="492" height="500" id="Слой_1_2_" xlink:href="52B2C871.png"  transform="matrix(0.7902 0 0 0.7902 104 95)">
	</image>
</g>
</svg>
