<svg xmlns="http://www.w3.org/2000/svg" width="14" height="14" viewBox="0 0 14 14">
  <metadata><?xpacket begin="﻿" id="W5M0MpCehiHzreSzNTczkc9d"?>
<x:xmpmeta xmlns:x="adobe:ns:meta/" x:xmptk="Adobe XMP Core 5.6-c142 79.160924, 2017/07/13-01:06:39        ">
   <rdf:RDF xmlns:rdf="http://www.w3.org/1999/02/22-rdf-syntax-ns#">
      <rdf:Description rdf:about=""/>
   </rdf:RDF>
</x:xmpmeta>
                                                                                                    
                                                                                                    
                                                                                                    
                                                                                                    
                                                                                                    
                                                                                                    
                                                                                                    
                                                                                                    
                                                                                                    
                                                                                                    
                                                                                                    
                                                                                                    
                                                                                                    
                                                                                                    
                                                                                                    
                                                                                                    
                                                                                                    
                                                                                                    
                                                                                                    
                                                                                                    
                           
<?xpacket end="w"?></metadata>
<defs>
    <style>
      .cls-1 {
        fill: #f8f8f8;
        fill-rule: evenodd;
      }
    </style>
  </defs>
  <path id="Фигура_25_копия" data-name="Фигура 25 копия" class="cls-1" d="M406.441,4751.27a6.921,6.921,0,1,0,.559,2.72A6.855,6.855,0,0,0,406.441,4751.27Zm-1.117,5.82a6.138,6.138,0,0,1-2.251,2.24,6.026,6.026,0,0,1-3.084.83,5.916,5.916,0,0,1-2.389-.49,6.4,6.4,0,0,1-1.959-1.31,6.248,6.248,0,0,1-1.309-1.97,6.207,6.207,0,0,1,.337-5.48,6.146,6.146,0,0,1,2.243-2.24,6.132,6.132,0,0,1,6.161,0,6.153,6.153,0,0,1,2.251,2.24,6.016,6.016,0,0,1,.826,3.08A6.079,6.079,0,0,1,405.324,4757.09Zm-4.892-3.16v-3.97a0.447,0.447,0,0,0-.444-0.43,0.438,0.438,0,0,0-.421.43v4.03a0.493,0.493,0,0,1,.016.06,0.4,0.4,0,0,0,.115.35l2.288,2.29a0.443,0.443,0,0,0,.59,0,0.417,0.417,0,0,0,0-.6Z" transform="translate(-393 -4747)"/>
</svg>
