<svg xmlns="http://www.w3.org/2000/svg" width="18.66" height="17.91" viewBox="0 0 18.66 17.91">
  <metadata><?xpacket begin="﻿" id="W5M0MpCehiHzreSzNTczkc9d"?>
<x:xmpmeta xmlns:x="adobe:ns:meta/" x:xmptk="Adobe XMP Core 5.6-c142 79.160924, 2017/07/13-01:06:39        ">
   <rdf:RDF xmlns:rdf="http://www.w3.org/1999/02/22-rdf-syntax-ns#">
      <rdf:Description rdf:about=""/>
   </rdf:RDF>
</x:xmpmeta>
                                                                                                    
                                                                                                    
                                                                                                    
                                                                                                    
                                                                                                    
                                                                                                    
                                                                                                    
                                                                                                    
                                                                                                    
                                                                                                    
                                                                                                    
                                                                                                    
                                                                                                    
                                                                                                    
                                                                                                    
                                                                                                    
                                                                                                    
                                                                                                    
                                                                                                    
                                                                                                    
                           
<?xpacket end="w"?></metadata>
<defs>
    <style>
      .cls-1 {
        fill: #f8f8f8;
        fill-rule: evenodd;
      }
    </style>
  </defs>
  <path id="Фигура_15_копия" data-name="Фигура 15 копия" class="cls-1" d="M1136.99,2901.07V2908h-4v-6.47c0-1.62-.57-2.73-2.02-2.73a2.186,2.186,0,0,0-2.05,1.47,2.9,2.9,0,0,0-.14.98V2908h-3.99s0.05-10.95,0-12.09h3.99v1.72a0.142,0.142,0,0,1-.02.04h0.02v-0.04a3.969,3.969,0,0,1,3.61-2C1135.02,2895.63,1136.99,2897.36,1136.99,2901.07Zm-16.39-10.98a2.095,2.095,0,1,0-.05,4.18h0.03A2.1,2.1,0,1,0,1120.6,2890.09Zm-2.02,17.91h4v-12.09h-4V2908Z" transform="translate(-1118.34 -2890.09)"/>
</svg>
