<svg xmlns="http://www.w3.org/2000/svg" width="12" height="12" viewBox="0 0 12 12">
  <metadata><?xpacket begin="﻿" id="W5M0MpCehiHzreSzNTczkc9d"?>
<x:xmpmeta xmlns:x="adobe:ns:meta/" x:xmptk="Adobe XMP Core 5.6-c142 79.160924, 2017/07/13-01:06:39        ">
   <rdf:RDF xmlns:rdf="http://www.w3.org/1999/02/22-rdf-syntax-ns#">
      <rdf:Description rdf:about=""/>
   </rdf:RDF>
</x:xmpmeta>
                                                                                                    
                                                                                                    
                                                                                                    
                                                                                                    
                                                                                                    
                                                                                                    
                                                                                                    
                                                                                                    
                                                                                                    
                                                                                                    
                                                                                                    
                                                                                                    
                                                                                                    
                                                                                                    
                                                                                                    
                                                                                                    
                                                                                                    
                                                                                                    
                                                                                                    
                                                                                                    
                           
<?xpacket end="w"?></metadata>
<defs>
    <style>
      .cls-1 {
        fill: #fff;
        fill-rule: evenodd;
      }
    </style>
  </defs>
  <path id="Фигура_28_копия" data-name="Фигура 28 копия" class="cls-1" d="M515.944,4754.82a2.031,2.031,0,0,0-1.488.65l-4.372-2.18a1.911,1.911,0,0,0,0-.61l4.366-2.16a2.048,2.048,0,0,0,1.493.66,2.09,2.09,0,1,0-2.055-2.09,2.166,2.166,0,0,0,.024.3l-4.365,2.16a2.011,2.011,0,0,0-1.493-.66,2.09,2.09,0,0,0,0,4.18,2.029,2.029,0,0,0,1.487-.65l4.373,2.18a1.925,1.925,0,0,0-.026.31A2.055,2.055,0,1,0,515.944,4754.82Z" transform="translate(-506 -4747)"/>
</svg>
