<svg xmlns="http://www.w3.org/2000/svg" width="15.88" height="16" viewBox="0 0 15.88 16">
  <metadata><?xpacket begin="﻿" id="W5M0MpCehiHzreSzNTczkc9d"?>
<x:xmpmeta xmlns:x="adobe:ns:meta/" x:xmptk="Adobe XMP Core 5.6-c142 79.160924, 2017/07/13-01:06:39        ">
   <rdf:RDF xmlns:rdf="http://www.w3.org/1999/02/22-rdf-syntax-ns#">
      <rdf:Description rdf:about=""/>
   </rdf:RDF>
</x:xmpmeta>
                                                                                                    
                                                                                                    
                                                                                                    
                                                                                                    
                                                                                                    
                                                                                                    
                                                                                                    
                                                                                                    
                                                                                                    
                                                                                                    
                                                                                                    
                                                                                                    
                                                                                                    
                                                                                                    
                                                                                                    
                                                                                                    
                                                                                                    
                                                                                                    
                                                                                                    
                                                                                                    
                           
<?xpacket end="w"?></metadata>
<defs>
    <style>
      .cls-1 {
        fill: #fff;
        fill-rule: evenodd;
      }
    </style>
  </defs>
  <path id="Фигура_16_копия_2" data-name="Фигура 16 копия 2" class="cls-1" d="M1232.8,926.58a1.41,1.41,0,0,0-1.78-.916l-1.42.467c-0.32-.98-0.66-2.022-0.97-3,0.86-.285,1.42-0.468,1.42-0.468a1.424,1.424,0,0,0-.87-2.711l-1.43.467c-0.28-.873-0.46-1.436-0.46-1.436a1.411,1.411,0,0,0-1.78-.915,1.432,1.432,0,0,0-.91,1.8l0.47,1.436-2.98.975c-0.28-.873-0.46-1.436-0.46-1.436a1.415,1.415,0,1,0-2.69.88l0.46,1.437-1.47.482a1.44,1.44,0,0,0-.88,1.734,1.407,1.407,0,0,0,1.75.977c0.01,0,.59-0.192,1.47-0.482l0.97,3-1.47.483a1.438,1.438,0,0,0-.88,1.733,1.405,1.405,0,0,0,1.75.977c0.01,0,.59-0.191,1.48-0.483l0.47,1.483a1.416,1.416,0,0,0,2.69-.88c0-.006-0.19-0.588-0.48-1.482,0.98-.318,2.01-0.658,2.98-0.976l0.48,1.483a1.416,1.416,0,0,0,2.69-.881s-0.19-.588-0.48-1.482c0.87-.283,1.42-0.466,1.42-0.466A1.424,1.424,0,0,0,1232.8,926.58Zm-8.87,1.407c-0.32-.98-0.65-2.022-0.97-3,0.98-.318,2.01-0.657,2.98-0.975l0.97,3Z" transform="translate(-1217 -918)"/>
</svg>
