<svg xmlns="http://www.w3.org/2000/svg" width="25.66" height="17.12" viewBox="0 0 25.66 17.12">
  <metadata><?xpacket begin="﻿" id="W5M0MpCehiHzreSzNTczkc9d"?>
<x:xmpmeta xmlns:x="adobe:ns:meta/" x:xmptk="Adobe XMP Core 5.6-c142 79.160924, 2017/07/13-01:06:39        ">
   <rdf:RDF xmlns:rdf="http://www.w3.org/1999/02/22-rdf-syntax-ns#">
      <rdf:Description rdf:about=""/>
   </rdf:RDF>
</x:xmpmeta>
                                                                                                    
                                                                                                    
                                                                                                    
                                                                                                    
                                                                                                    
                                                                                                    
                                                                                                    
                                                                                                    
                                                                                                    
                                                                                                    
                                                                                                    
                                                                                                    
                                                                                                    
                                                                                                    
                                                                                                    
                                                                                                    
                                                                                                    
                                                                                                    
                                                                                                    
                                                                                                    
                           
<?xpacket end="w"?></metadata>
<defs>
    <style>
      .cls-1 {
        fill: #fff;
        fill-rule: evenodd;
      }
    </style>
  </defs>
  <path id="Фигура_23" data-name="Фигура 23" class="cls-1" d="M1018.26,2899.65h6.49a0.591,0.591,0,0,0,.58-0.6,0.583,0.583,0,0,0-.58-0.59h-6.49a0.583,0.583,0,0,0-.58.59A0.591,0.591,0,0,0,1018.26,2899.65Zm0,2.38h6.49a0.591,0.591,0,0,0,.58-0.6,0.583,0.583,0,0,0-.58-0.59h-6.49a0.583,0.583,0,0,0-.58.59A0.591,0.591,0,0,0,1018.26,2902.03Zm0,2.38h6.49a0.591,0.591,0,0,0,.58-0.6,0.583,0.583,0,0,0-.58-0.59h-6.49a0.583,0.583,0,0,0-.58.59A0.591,0.591,0,0,0,1018.26,2904.41Zm9.54-11.54h-23.93a0.881,0.881,0,0,0-.87.89v15.35a0.881,0.881,0,0,0,.87.89h23.93a0.881,0.881,0,0,0,.87-0.89v-15.35A0.881,0.881,0,0,0,1027.8,2892.87Zm-0.88,15.34h-22.18v-13.56h22.18v13.56Zm-18.49-6.15a3.342,3.342,0,0,0-1.39,2.72v1.35a0.591,0.591,0,0,0,.58.6h5.32a0.591,0.591,0,0,0,.58-0.6v-1.35a3.356,3.356,0,0,1,0-5.44,3.241,3.241,0,1,0-6.48,0A3.342,3.342,0,0,0,1008.43,2902.06Zm3.93,2.72v0.76h-4.16v-0.76A2.08,2.08,0,1,1,1012.36,2904.78Zm-2.08-7.57a2.131,2.131,0,1,1-2.08,2.13A2.1,2.1,0,0,1,1010.28,2897.21Z" transform="translate(-1003 -2892.88)"/>
</svg>
