<svg height="496pt" viewBox="-88 0 496 496" width="496pt" xmlns="http://www.w3.org/2000/svg" fill="#9c9b9b"><path d="M160 0C71.777 0 0 71.777 0 160v1.04c0 42.737 16.648 82.92 46.863 113.144l12.395 12.382c32.75 32.762 55.734 72.746 67.804 116.817C93.793 410.457 72 427.777 72 448c0 26.91 38.656 48 88 48s88-21.09 88-48c0-20.215-21.785-37.535-55.055-44.625 12.07-44.07 35.055-84.055 67.809-116.816l12.39-12.383C303.353 243.96 320 203.777 320 161.039V160C320 71.777 248.223 0 160 0zm72 448c0 15.137-29.566 32-72 32s-72-16.863-72-32c0-11.922 17.977-23.809 42.855-29.055 1.008 4.797 2.055 9.582 2.81 14.461C135.671 446.496 146.753 456 160 456s24.328-9.504 26.336-22.594c.754-4.879 1.8-9.672 2.809-14.469C214.023 424.192 232 436.09 232 448zm72-286.96c0 38.464-14.984 74.624-42.176 101.831l-12.39 12.387c-42.489 42.496-69.778 96.336-78.907 155.719-.808 5.222-5.23 9.023-10.527 9.023s-9.719-3.8-10.527-9.031c-9.137-59.383-36.418-113.227-78.907-155.723l-12.39-12.383C30.984 235.664 16 199.503 16 161.04V160C16 80.602 80.602 16 160 16s144 64.602 144 144zm0 0"/><path d="M160 48C98.238 48 48 98.238 48 160s50.238 112 112 112 112-50.238 112-112S221.762 48 160 48zm0 208c-52.938 0-96-43.063-96-96s43.063-96 96-96 96 43.063 96 96-43.063 96-96 96zm0 0M120 288h16v16h-16zm0 0M152 288h16v16h-16zm0 0M184 288h16v16h-16zm0 0"/></svg>