<svg xmlns="http://www.w3.org/2000/svg" width="404.774" height="404.774"><path d="M145.76 82.63c-.612-.612-1.224-1.224-1.836-1.224-1.224-9.18-6.12-19.584-8.568-27.54-4.896-15.912-9.18-32.436-13.464-48.348-1.836-7.956-12.24-6.732-14.688 0-9.792 25.704-18.972 50.796-29.988 75.888-1.836 3.672.612 6.732 3.672 7.344.612 1.224 1.836 2.448 4.284 3.06 8.568.612 17.748 1.224 26.316 1.836-12.24 37.944-8.568 83.844-7.956 123.012.612 50.797 1.836 102.204 5.508 153.612.612 7.956 11.628 7.956 12.24 0 3.06-47.736-.612-95.472-1.224-143.208-.612-44.676 5.508-88.74 5.508-132.804 7.344 1.224 16.524 2.448 20.808-2.448 1.836-3.06 1.836-6.732-.612-9.18zm-23.868-2.448c-11.016.612-22.644.612-33.66 1.836 9.792-15.912 17.748-33.048 25.092-50.184 2.448 8.568 4.896 17.136 6.732 25.704 1.836 6.12 3.06 15.3 6.12 22.644h-4.284zM326.912 315.802c-.611-3.672-5.508-6.12-9.18-4.896-3.061 1.225-6.732 2.448-10.404 3.672 18.359-21.42 7.344-80.172 6.121-103.428-3.061-52.632-6.121-105.876-12.854-157.896-1.223-7.956-11.627-7.956-12.24 0-3.672 45.288 4.285 92.412 7.346 137.088 2.447 37.944 9.791 83.844-.613 121.176-.611 1.836 0 3.672 1.225 5.508-5.508.612-11.629.612-17.137 0-7.344-1.224-11.016 7.956-6.119 11.628-17.748 7.956 11.016 61.2 17.135 72.217 2.449 4.896 11.018 5.508 13.465 0 11.016-25.093 20.195-50.797 23.867-78.337 1.224-3.06.612-5.509-.612-6.732zm-42.229 33.048c-.611-1.836-3.059-14.076-6.73-18.972 9.18 1.836 22.643 3.06 33.047 0-3.061 16.523-8.568 31.823-14.076 47.735-4.897-9.792-8.569-18.971-12.241-28.763z"/></svg>