<svg xmlns="http://www.w3.org/2000/svg" width="95.218" height="95.218"><path d="M70.544 95.218l18.697-15.069-12.193-15.131c.037-.062.078-.115.115-.176l3.461-6.191c10.098-18.174 5.717-52.763 5.717-52.763-.228-2.263-.498-3.388-.498-3.388L64.611 6.968l1.148 3.194s9.832 29.653 7.471 50.116L24.674 0 5.976 15.07l12.193 15.131c-.038.062-.079.115-.116.175l-3.461 6.192C4.496 54.742 8.876 89.33 8.876 89.33c.228 2.263.497 3.388.497 3.388l21.234-4.468-1.148-3.193s-9.833-29.654-7.471-50.117l48.556 60.278z"/></svg>