<?xml version="1.0" standalone="no"?>
<!DOCTYPE svg PUBLIC "-//W3C//DTD SVG 20010904//EN"
 "http://www.w3.org/TR/2001/REC-SVG-20010904/DTD/svg10.dtd">
<svg version="1.0" xmlns="http://www.w3.org/2000/svg"
 width="456.000000pt" height="456.000000pt" viewBox="0 0 456.000000 456.000000"
 preserveAspectRatio="xMidYMid meet">
<metadata>
Created by potrace 1.11, written by Peter Selinger 2001-2013
</metadata>
<g transform="translate(0.000000,456.000000) scale(0.100000,-0.100000)"
fill="#000000" stroke="none">
<path d="M2098 4556 c-1 -2 -32 -7 -68 -10 -481 -48 -955 -268 -1321 -614
-220 -208 -423 -502 -532 -772 -48 -118 -50 -124 -52 -135 -1 -5 -10 -31 -18
-56 -23 -68 -54 -192 -71 -289 -8 -47 -18 -101 -21 -120 -10 -54 -14 -449 -5
-505 4 -28 11 -77 14 -110 4 -33 11 -76 16 -95 5 -19 11 -47 14 -61 7 -40 55
-221 65 -244 5 -11 24 -58 42 -105 126 -330 380 -680 664 -917 220 -184 500
-334 789 -424 55 -17 109 -33 120 -35 12 -2 53 -10 91 -18 152 -32 247 -41
460 -41 229 0 346 13 535 59 340 83 656 244 931 474 316 265 572 644 696 1032
40 126 76 280 89 380 2 14 7 52 11 85 10 75 9 420 -1 500 -8 67 -15 117 -22
149 -2 11 -7 37 -10 56 -24 144 -116 408 -201 573 -181 352 -436 638 -773 868
-254 173 -622 315 -920 354 -25 4 -58 9 -75 11 -35 6 -441 14 -447 10z"/>
</g>
</svg>
